<svg xmlns="http://www.w3.org/2000/svg" viewBox="12.1 8.4 262.8 272.2"><linearGradient id="a" x1="53.5" x2="177.9" y1="247.7" y2="115.3" gradientUnits="userSpaceOnUse"><stop offset="0" stop-color="#e01d84"/><stop offset=".4" stop-color="#df1d85"/><stop offset=".8" stop-color="#932c87"/><stop offset="1" stop-color="#5d2f88"/></linearGradient><radialGradient id="b" cx="190.5" cy="80.2" r="121.6" gradientTransform="matrix(1 .0024 -.002 .8362 0 13)" gradientUnits="userSpaceOnUse"><stop offset="0" stop-color="#e01d84"/><stop offset=".1" stop-color="#de1e85"/><stop offset=".3" stop-color="#d62085"/><stop offset=".4" stop-color="#c92386"/><stop offset=".6" stop-color="#b72786"/><stop offset=".7" stop-color="#9d2b87"/><stop offset=".9" stop-color="#7c2e88"/><stop offset="1" stop-color="#5d2f88"/></radialGradient><linearGradient id="c" x1="83.2" x2="137.4" y1="62.3" y2="62.3" gradientUnits="userSpaceOnUse"><stop offset="0" stop-color="#e01d84"/><stop offset=".2" stop-color="#da1e85"/><stop offset=".7" stop-color="#c72085"/><stop offset="1" stop-color="#b52284"/></linearGradient><path fill="#e32286" d="M30 175a106 106 0 0 1 1-72s14-45 61-66c0 0 16-8 40-9l-5-5c-12-7-29-10-39 1l-9 10-11 8c-4 2-8 1-13 2-4 1-8 2-11 5-4 3-6 7-6 11l-1 11c0 11-3 14-11 20l-8 9c-6 11 4 22 4 32l-1 7c0 2-2 3-3 5l-3 9c0 3 2 6 4 9a82 82 0 0 0 11 13"/><path fill="url(#a)" d="M220 214c23-10 33-28 33-28 22-29 14-60 14-60-13 30-26 38-26 38 34-51 0-82 0-82 14 29-4 65-4 65a98 98 0 0 1-37 43c24 5 42-11 42-11-35 37-72 35-72 35 15 18 39 16 39 16-31 8-60-3-84-22l-13-12-4-5c-1 18 19 35 19 35-25-10-36-31-36-31s-16-28-4-60 47-38 47-38c30 14 55 18 55 18 53 9 50-17 50-17 0-22-33-45-33-45C146 8 92 37 92 37c-47 21-61 66-61 66l-5 21c-5 30 3 58 19 83 26 39 68 52 68 52 63 22 106-10 106-10 39-27 47-58 47-58-32 25-46 23-46 23zM172 68c3 0 5 2 5 5s-2 6-5 6-6-3-6-6 3-5 6-5z"/><path fill="url(#b)" d="M239 98c0-22-33-45-33-45C146 8 92 37 92 37c-47 21-61 66-61 66l-5 20c-3 14-1 28-1 28a113 113 0 0 0 8 32c-1 0-5-20-1-40 0 0 4-20 17-36 0 0 23-32 64-19a158 158 0 0 0 21 9c30 14 55 18 55 18 52 9 49-17 49-17zm-67-19c-3 0-6-3-6-6s3-5 6-5 5 2 5 5-2 6-5 6z"/><path fill="url(#c)" d="m137 58-34-10h-3s-20 5-16 16c0 0 2 7 8 13l37-2z"/></svg>